<svg width="143" height="119" viewBox="0 0 143 119" fill="none" xmlns="http://www.w3.org/2000/svg">
<rect y="15" width="130" height="90" fill="#F4F4F4"/>
<path d="M18.88 28.088C19.748 28.088 20.42 27.416 20.42 26.576C20.42 25.708 19.748 25.008 18.88 25.008C18.04 25.008 17.368 25.708 17.368 26.576C17.368 27.416 18.04 28.088 18.88 28.088ZM11.572 32.82H14.904V30.692H11.572V28.732C11.572 27.976 11.684 27.248 12.86 27.248C13.56 27.248 14.176 27.444 14.904 27.78V25.736C14.176 25.344 13.336 25.064 12.244 25.064C10.704 25.064 9.136 25.82 9.136 28.312V30.692H6.924V32.82H9.136V45H11.572V32.82ZM17.676 45H20.112V30.692H17.676V45ZM24.7576 45H27.1936V36.936C27.1936 33.688 29.0136 32.764 30.3856 32.764C31.3656 32.764 31.9816 33.072 32.4296 33.38L32.7936 31.084C32.2896 30.664 31.5056 30.356 30.5816 30.356C28.9856 30.356 27.8376 31.14 27.1936 32.568V30.692H24.7576V45ZM52.4124 45H54.8484V35.62C54.8484 32.148 52.6644 30.356 49.8084 30.356C47.9604 30.356 46.5044 31.168 45.6644 32.456C44.8524 31.056 43.3684 30.356 41.8284 30.356C40.3164 30.356 38.9444 30.888 38.0764 32.036V30.692H35.6404V45H38.0764V36.292C38.0764 34.024 39.2524 32.596 41.1564 32.596C43.3684 32.596 44.0124 34.36 44.0124 36.32V45H46.4484V36.404C46.4484 34.136 47.6804 32.596 49.5284 32.596C51.7404 32.596 52.4124 34.36 52.4124 36.32V45ZM67.5241 45H69.8201V35.508C69.8201 31.112 66.9641 30.356 64.7241 30.356C62.5681 30.356 60.6921 31.112 59.5441 31.868L60.2441 33.912C61.3081 33.156 62.8201 32.484 64.4161 32.484C66.2641 32.484 67.5241 33.184 67.5241 35.704V36.712C66.3481 36.04 65.0881 35.788 63.8281 35.788C61.0561 35.788 58.4801 37.216 58.4801 40.52C58.4801 43.712 60.5521 45.336 63.4641 45.336C65.1721 45.336 66.5721 44.58 67.5241 43.684V45ZM63.8281 43.18C61.8681 43.18 60.7761 42.116 60.7761 40.52C60.7761 38.7 62.3161 37.888 64.1641 37.888C65.3401 37.888 66.6561 38.308 67.5241 38.84V41.304C66.7121 42.256 65.4241 43.18 63.8281 43.18ZM61.394 99.768C63.954 99.768 65.938 99.192 67.666 98.296L68.306 92.856C66.898 93.752 65.298 94.584 63.442 94.584C60.562 94.584 60.05 92.6 60.05 90.104V71.16H68.114V66.296H60.05V52.792L54.482 55.48V66.296H49.17V71.16H54.482V91.96C54.482 96.568 56.466 99.768 61.394 99.768ZM82.0035 99H86.9955L92.8835 79.608C93.2675 78.328 93.7155 76.6 94.0355 75.32C94.3555 76.6 94.8675 78.328 95.2515 79.608L101.204 99H106.196L114.58 66.296H109.076L104.148 88.248C103.892 89.592 103.636 90.744 103.444 91.832L102.548 88.248L96.4035 66.296H91.7955L85.6515 88.248C85.3315 89.464 85.0115 90.616 84.8195 91.704C84.6275 90.616 84.3715 89.528 84.1155 88.248L79.1235 66.296H73.6195L82.0035 99Z" fill="black"/>
<path d="M29.424 79.736H41.712V74.36H29.424V62.008H23.792V74.36H11.632V79.736H23.792V92.088H29.424V79.736Z" fill="#4ABDE1"/>
</svg>
