<svg width="437" height="169" viewBox="0 0 437 169" fill="none" xmlns="http://www.w3.org/2000/svg">
<rect width="437" height="169" fill="#F4F4F4"/>
<path d="M25.5717 11.088C26.4397 11.088 27.1117 10.416 27.1117 9.576C27.1117 8.708 26.4397 8.008 25.5717 8.008C24.7317 8.008 24.0597 8.708 24.0597 9.576C24.0597 10.416 24.7317 11.088 25.5717 11.088ZM18.2637 15.82H21.5957V13.692H18.2637V11.732C18.2637 10.976 18.3757 10.248 19.5517 10.248C20.2517 10.248 20.8677 10.444 21.5957 10.78V8.736C20.8677 8.344 20.0277 8.064 18.9357 8.064C17.3957 8.064 15.8277 8.82 15.8277 11.312V13.692H13.6157V15.82H15.8277V28H18.2637V15.82ZM24.3677 28H26.8037V13.692H24.3677V28ZM31.4493 28H33.8853V19.936C33.8853 16.688 35.7053 15.764 37.0773 15.764C38.0573 15.764 38.6733 16.072 39.1213 16.38L39.4853 14.084C38.9813 13.664 38.1973 13.356 37.2733 13.356C35.6773 13.356 34.5293 14.14 33.8853 15.568V13.692H31.4493V28ZM59.1041 28H61.5401V18.62C61.5401 15.148 59.3561 13.356 56.5001 13.356C54.6521 13.356 53.1961 14.168 52.3561 15.456C51.5441 14.056 50.0601 13.356 48.5201 13.356C47.0081 13.356 45.6361 13.888 44.7681 15.036V13.692H42.3321V28H44.7681V19.292C44.7681 17.024 45.9441 15.596 47.8481 15.596C50.0601 15.596 50.7041 17.36 50.7041 19.32V28H53.1401V19.404C53.1401 17.136 54.3721 15.596 56.2201 15.596C58.4321 15.596 59.1041 17.36 59.1041 19.32V28ZM74.2158 28H76.5118V18.508C76.5118 14.112 73.6558 13.356 71.4158 13.356C69.2598 13.356 67.3838 14.112 66.2358 14.868L66.9358 16.912C67.9998 16.156 69.5118 15.484 71.1078 15.484C72.9558 15.484 74.2158 16.184 74.2158 18.704V19.712C73.0398 19.04 71.7798 18.788 70.5198 18.788C67.7478 18.788 65.1718 20.216 65.1718 23.52C65.1718 26.712 67.2438 28.336 70.1558 28.336C71.8638 28.336 73.2638 27.58 74.2158 26.684V28ZM70.5198 26.18C68.5598 26.18 67.4678 25.116 67.4678 23.52C67.4678 21.7 69.0078 20.888 70.8558 20.888C72.0318 20.888 73.3478 21.308 74.2158 21.84V24.304C73.4038 25.256 72.1158 26.18 70.5198 26.18ZM68.0857 87.768C70.6457 87.768 72.6297 87.192 74.3577 86.296L74.9977 80.856C73.5897 81.752 71.9897 82.584 70.1337 82.584C67.2537 82.584 66.7417 80.6 66.7417 78.104V59.16H74.8057V54.296H66.7417V40.792L61.1737 43.48V54.296H55.8617V59.16H61.1737V79.96C61.1737 84.568 63.1577 87.768 68.0857 87.768ZM95.1102 87.768C103.878 87.768 109.574 81.368 109.574 70.616C109.574 59.8 103.878 53.528 95.1102 53.528C86.3422 53.528 80.6462 59.928 80.6462 70.68C80.6462 81.496 86.3422 87.768 95.1102 87.768ZM95.1102 82.584C89.5422 82.584 86.2782 78.104 86.2782 70.68C86.2782 63.064 89.5422 58.648 95.1102 58.648C100.678 58.648 103.942 63.192 103.942 70.616C103.942 78.104 100.614 82.584 95.1102 82.584ZM130.862 87.768C135.278 87.768 138.99 85.976 141.422 83.544L138.03 79.768C135.982 81.816 133.486 82.712 130.99 82.712C126.062 82.712 122.478 78.808 122.03 72.792H144.174C144.302 71.512 144.366 70.104 144.366 69.08C144.366 58.328 138.222 53.528 130.862 53.528C122.158 53.528 116.334 59.8 116.334 70.616C116.334 80.6 121.902 87.768 130.862 87.768ZM121.966 68.056C122.286 61.336 126.126 58.456 130.862 58.456C134.318 58.456 138.67 60.632 138.734 68.056H121.966ZM162.739 100.248C171.827 99.736 178.163 96.28 178.163 85.656V54.296H172.595V56.984C171.315 55.576 168.755 53.528 164.339 53.528C156.339 53.528 150.771 59.864 150.771 70.616C150.771 82.008 156.915 87.768 164.147 87.768C168.115 87.768 170.739 86.36 172.595 83.8V87.768C172.595 92.056 170.163 95.32 160.051 95.896L162.739 100.248ZM165.299 82.584C160.051 82.584 156.403 78.104 156.403 70.616C156.403 62.936 159.475 58.648 165.299 58.648C167.795 58.648 170.995 60.312 172.595 63V77.976C170.931 80.856 167.987 82.584 165.299 82.584ZM201.362 87.768C205.778 87.768 209.49 85.976 211.922 83.544L208.53 79.768C206.482 81.816 203.986 82.712 201.49 82.712C196.562 82.712 192.978 78.808 192.53 72.792H214.674C214.802 71.512 214.866 70.104 214.866 69.08C214.866 58.328 208.722 53.528 201.362 53.528C192.658 53.528 186.834 59.8 186.834 70.616C186.834 80.6 192.402 87.768 201.362 87.768ZM192.466 68.056C192.786 61.336 196.626 58.456 201.362 58.456C204.818 58.456 209.17 60.632 209.234 68.056H192.466ZM231.959 87H236.631L248.599 54.296H243.031L235.415 76.12C235.031 77.272 234.711 78.168 234.391 79.32C234.071 78.168 233.751 77.272 233.367 76.12L225.623 54.296H219.991L231.959 87ZM268.485 87.768C277.253 87.768 282.949 81.368 282.949 70.616C282.949 59.8 277.253 53.528 268.485 53.528C259.717 53.528 254.021 59.928 254.021 70.68C254.021 81.496 259.717 87.768 268.485 87.768ZM268.485 82.584C262.917 82.584 259.653 78.104 259.653 70.68C259.653 63.064 262.917 58.648 268.485 58.648C274.053 58.648 277.317 63.192 277.317 70.616C277.317 78.104 273.989 82.584 268.485 82.584ZM304.237 87.768C308.653 87.768 312.365 85.976 314.797 83.544L311.405 79.768C309.357 81.816 306.861 82.712 304.365 82.712C299.437 82.712 295.853 78.808 295.405 72.792H317.549C317.677 71.512 317.741 70.104 317.741 69.08C317.741 58.328 311.597 53.528 304.237 53.528C295.533 53.528 289.709 59.8 289.709 70.616C289.709 80.6 295.277 87.768 304.237 87.768ZM295.341 68.056C295.661 61.336 299.501 58.456 304.237 58.456C307.693 58.456 312.045 60.632 312.109 68.056H295.341ZM336.114 100.248C345.202 99.736 351.538 96.28 351.538 85.656V54.296H345.97V56.984C344.69 55.576 342.13 53.528 337.714 53.528C329.714 53.528 324.146 59.864 324.146 70.616C324.146 82.008 330.29 87.768 337.522 87.768C341.49 87.768 344.114 86.36 345.97 83.8V87.768C345.97 92.056 343.538 95.32 333.426 95.896L336.114 100.248ZM338.674 82.584C333.426 82.584 329.778 78.104 329.778 70.616C329.778 62.936 332.85 58.648 338.674 58.648C341.17 58.648 344.37 60.312 345.97 63V77.976C344.306 80.856 341.362 82.584 338.674 82.584ZM373.713 87.768C377.617 87.768 380.113 86.36 381.969 84.44V87H387.537V40.792L381.969 43.416V56.6C380.113 54.936 377.553 53.528 373.713 53.528C365.585 53.528 360.209 59.864 360.209 70.616C360.209 81.176 365.393 87.768 373.713 87.768ZM374.481 82.584C369.105 82.584 365.841 77.4 365.841 70.616C365.841 62.936 368.977 58.648 374.481 58.648C378.257 58.648 380.753 60.888 381.969 62.808V78.168C380.305 80.984 377.553 82.584 374.481 82.584ZM410.674 87.768C415.09 87.768 418.802 85.976 421.234 83.544L417.842 79.768C415.794 81.816 413.298 82.712 410.802 82.712C405.874 82.712 402.29 78.808 401.842 72.792H423.986C424.114 71.512 424.178 70.104 424.178 69.08C424.178 58.328 418.034 53.528 410.674 53.528C401.97 53.528 396.146 59.8 396.146 70.616C396.146 80.6 401.714 87.768 410.674 87.768ZM401.778 68.056C402.098 61.336 405.938 58.456 410.674 58.456C414.13 58.456 418.482 60.632 418.546 68.056H401.778ZM23.5077 152H28.4997L34.3877 132.608C34.7717 131.328 35.2197 129.6 35.5397 128.32C35.8597 129.6 36.3717 131.328 36.7557 132.608L42.7077 152H47.6997L56.0837 119.296H50.5797L45.6517 141.248C45.3957 142.592 45.1397 143.744 44.9477 144.832L44.0517 141.248L37.9077 119.296H33.2997L27.1557 141.248C26.8357 142.464 26.5157 143.616 26.3237 144.704C26.1317 143.616 25.8757 142.528 25.6197 141.248L20.6277 119.296H15.1237L23.5077 152ZM81.8807 152H87.1287V130.304C87.1287 120.256 80.6007 118.528 75.4807 118.528C70.5527 118.528 66.2647 120.256 63.6407 121.984L65.2407 126.656C67.6727 124.928 71.1287 123.392 74.7767 123.392C79.0007 123.392 81.8807 124.992 81.8807 130.752V133.056C79.1927 131.52 76.3127 130.944 73.4327 130.944C67.0967 130.944 61.2087 134.208 61.2087 141.76C61.2087 149.056 65.9447 152.768 72.6007 152.768C76.5047 152.768 79.7047 151.04 81.8807 148.992V152ZM73.4327 147.84C68.9527 147.84 66.4567 145.408 66.4567 141.76C66.4567 137.6 69.9767 135.744 74.2007 135.744C76.8887 135.744 79.8967 136.704 81.8807 137.92V143.552C80.0247 145.728 77.0807 147.84 73.4327 147.84ZM115.568 152H120.816V130.304C120.816 120.256 114.288 118.528 109.168 118.528C104.24 118.528 99.9522 120.256 97.3282 121.984L98.9282 126.656C101.36 124.928 104.816 123.392 108.464 123.392C112.688 123.392 115.568 124.992 115.568 130.752V133.056C112.88 131.52 110 130.944 107.12 130.944C100.784 130.944 94.8962 134.208 94.8962 141.76C94.8962 149.056 99.6322 152.768 106.288 152.768C110.192 152.768 113.392 151.04 115.568 148.992V152ZM107.12 147.84C102.64 147.84 100.144 145.408 100.144 141.76C100.144 137.6 103.664 135.744 107.888 135.744C110.576 135.744 113.584 136.704 115.568 137.92V143.552C113.712 145.728 110.768 147.84 107.12 147.84ZM130.504 152H136.072V133.568C136.072 126.144 140.232 124.032 143.368 124.032C145.608 124.032 147.016 124.736 148.04 125.44L148.872 120.192C147.72 119.232 145.928 118.528 143.816 118.528C140.168 118.528 137.544 120.32 136.072 123.584V119.296H130.504V152ZM166.963 152.768C170.867 152.768 173.363 151.36 175.219 149.44V152H180.787V105.792L175.219 108.416V121.6C173.363 119.936 170.803 118.528 166.963 118.528C158.835 118.528 153.459 124.864 153.459 135.616C153.459 146.176 158.643 152.768 166.963 152.768ZM167.731 147.584C162.355 147.584 159.091 142.4 159.091 135.616C159.091 127.936 162.227 123.648 167.731 123.648C171.507 123.648 174.003 125.888 175.219 127.808V143.168C173.555 145.984 170.803 147.584 167.731 147.584ZM203.924 152.768C208.34 152.768 212.052 150.976 214.484 148.544L211.092 144.768C209.044 146.816 206.548 147.712 204.052 147.712C199.124 147.712 195.54 143.808 195.092 137.792H217.236C217.364 136.512 217.428 135.104 217.428 134.08C217.428 123.328 211.284 118.528 203.924 118.528C195.22 118.528 189.396 124.8 189.396 135.616C189.396 145.6 194.964 152.768 203.924 152.768ZM195.028 133.056C195.348 126.336 199.188 123.456 203.924 123.456C207.38 123.456 211.732 125.632 211.796 133.056H195.028ZM245.914 152H251.482V133.184C251.482 122.624 247.194 118.528 239.77 118.528C236.25 118.528 233.37 119.808 231.322 122.624V119.296H225.754V152H231.322V132.096C231.322 125.76 234.586 123.648 238.874 123.648C242.906 123.648 245.914 126.016 245.914 132.224V152Z" fill="black"/>
<path d="M36.1157 67.736H48.4037V62.36H36.1157V50.008H30.4837V62.36H18.3237V67.736H30.4837V80.088H36.1157V67.736Z" fill="#4ABDE1"/>
<path d="M220.442 158.016H256.474V163.392H220.442V158.016Z" fill="black"/>
</svg>
